<?xml version="1.0" encoding="utf-8"?>
<!-- Generator: Adobe Illustrator 23.0.1, SVG Export Plug-In . SVG Version: 6.00 Build 0)  -->
<svg version="1.1" id="Layer_1" xmlns="http://www.w3.org/2000/svg" xmlns:xlink="http://www.w3.org/1999/xlink" x="0px" y="0px"
	 viewBox="0 0 50 50" style="enable-background:new 0 0 50 50;" xml:space="preserve">
<style type="text/css">
	.st0{fill:none;stroke:#3C3C3C;stroke-width:1.5;stroke-linecap:round;stroke-linejoin:round;stroke-miterlimit:10;}
	.st1{fill:none;stroke:#3C3C3C;stroke-width:1.5;stroke-linecap:round;}
</style>
<g>
	<path class="st0" d="M38.6,25.1c0,7.5-6.1,13.6-13.6,13.6c-7.6,0-13.7-6.1-13.7-13.6c0-7.6,6.1-13.7,13.7-13.7
		C32.5,11.4,38.6,17.5,38.6,25.1L38.6,25.1z"/>
	<line class="st1" x1="25.1" y1="8.2" x2="25.1" y2="1"/>
	<line class="st1" x1="25.1" y1="49" x2="25.1" y2="41.8"/>
	<line class="st1" x1="41.8" y1="25.1" x2="49" y2="25.1"/>
	<line class="st1" x1="1" y1="25.1" x2="8.2" y2="25.1"/>
	<line class="st1" x1="13.1" y1="13.1" x2="8.1" y2="8.1"/>
	<line class="st1" x1="42.1" y1="42.1" x2="36.9" y2="36.9"/>
	<line class="st1" x1="36.9" y1="13.1" x2="42.1" y2="8.1"/>
	<line class="st1" x1="8.1" y1="42.1" x2="13.1" y2="36.9"/>
</g>
</svg>
