<?xml version="1.0" encoding="utf-8"?>
<!-- Generator: Adobe Illustrator 23.0.1, SVG Export Plug-In . SVG Version: 6.00 Build 0)  -->
<svg version="1.1" id="Layer_1" xmlns="http://www.w3.org/2000/svg" xmlns:xlink="http://www.w3.org/1999/xlink" x="0px" y="0px"
	 viewBox="0 0 50 50" style="enable-background:new 0 0 50 50;" xml:space="preserve">
<style type="text/css">
	.st0{fill:#FFFFFF;}
</style>
<g>
	<path class="st0" d="M6.3,2L48,43.7c1.4,1.2,1.4,3.1,0,4.2c-1.2,1.4-3.1,1.4-4.2,0L2,6.3C0.7,5.1,0.7,3.2,2,2
		C3.2,0.7,5.1,0.7,6.3,2L6.3,2z"/>
	<path class="st0" d="M43.7,2L2,43.7c-1.4,1.2-1.4,3.1,0,4.2c1.2,1.4,3.1,1.4,4.2,0L48,6.3c1.4-1.2,1.4-3.1,0-4.2
		C46.8,0.7,44.9,0.7,43.7,2L43.7,2z"/>
</g>
</svg>
