<?xml version="1.0" encoding="utf-8"?>
<!-- Generator: Adobe Illustrator 23.0.1, SVG Export Plug-In . SVG Version: 6.00 Build 0)  -->
<svg version="1.1" id="Layer_1" xmlns="http://www.w3.org/2000/svg" xmlns:xlink="http://www.w3.org/1999/xlink" x="0px" y="0px"
	 viewBox="0 0 50 50" style="enable-background:new 0 0 50 50;" xml:space="preserve">
<style type="text/css">
	.st0{fill:#3C3C3C;}
</style>
<g>
	<path class="st0" d="M25.3,42.6c-2.1-1.1-6.8-4-13.3-8.3l-2.4-1.6H6H2.4L2,32.4c-0.2-0.2-0.5-0.5-0.7-0.7L1,31.3V25v-6.3l0.3-0.4
		c0.2-0.2,0.5-0.5,0.7-0.6l0.4-0.4H6h3.6l2.7-1.8c6.7-4.4,11-7.1,13.1-8.1c1-0.5,1.3-0.5,1.5-0.5c0.4,0.1,0.6,0.3,0.7,0.5
		c0.2,0.3,0.2,34.9,0,35.2c-0.1,0.3-0.4,0.4-0.7,0.5C26.6,43.1,26.3,43.1,25.3,42.6L25.3,42.6z M32.8,35.3c-0.5-0.1-1.1-0.4-1.3-0.9
		c-0.3-0.5-0.3-1.3-0.1-1.7c0.1-0.2,1.5-1.6,3.1-3.2l2.9-2.9l-2.9-2.9c-2-2-3-3-3.1-3.3c-0.4-0.9,0.1-2.1,1.1-2.5
		c0.4-0.1,1.1-0.1,1.4,0.1c0.2,0.1,1.6,1.4,3.2,3l2.9,2.9l2.9-2.9c2-2,3-2.9,3.3-3c0.5-0.3,1.2-0.2,1.7,0.1c0.6,0.4,0.9,0.8,0.9,1.6
		c0,0.3-0.1,0.6-0.1,0.8c-0.1,0.1-1.4,1.5-3.1,3.1l-2.9,3l2.9,2.9c2,2,2.9,3,3,3.2c0.4,1.2-0.1,2.3-1.3,2.6c-0.4,0.1-0.6,0.1-1.2,0
		c-0.1-0.1-1.5-1.4-3.2-3.1l-3-3l-3,3c-1.6,1.7-3,3-3.1,3c0,0-0.3,0.1-0.4,0.1C33.4,35.4,33,35.4,32.8,35.3L32.8,35.3z"/>
</g>
</svg>
