<?xml version="1.0" encoding="utf-8"?>
<!-- Generator: Adobe Illustrator 23.0.1, SVG Export Plug-In . SVG Version: 6.00 Build 0)  -->
<svg version="1.1" id="Layer_1" xmlns="http://www.w3.org/2000/svg" xmlns:xlink="http://www.w3.org/1999/xlink" x="0px" y="0px"
	 viewBox="0 0 50 50" xml:space="preserve">
</style>
	<g>
		<path class="st0" d="M7.2,48.6c-0.3-0.1-0.4-0.4-0.4-0.5c0-0.3,6.8-17.6,7-17.9c0.1,0,0.4-0.1,0.7-0.1c0.3-0.1,0.4,0,0.7,0.3
			c0.1,0.1,0.4,0.4,0.4,0.5c0,0.4-6.8,17.7-7.1,17.9C8.1,49,7.5,49,7.2,48.6L7.2,48.6z M24.4,48.6c-0.1-0.1-0.3-0.4-0.3-0.5
			c0-0.1,1.4-3.9,3.2-8.4c1.8-4.6,3.4-8.5,3.4-8.8c0.3-0.5,0.7-0.8,1.2-0.8c0.3,0,0.8,0.4,0.8,0.8c0,0.1-0.5,1.6-1.1,3
			c-0.7,1.6-2.1,5.5-3.4,8.8c-1.6,3.9-2.4,5.9-2.5,6C25.3,49,24.8,49,24.4,48.6L24.4,48.6z M3.2,37.5c-0.3-0.1-0.5-0.4-0.5-0.7
			c-0.1-0.3,0.1-1.1,1.8-5.4c0.5-1.2,0.7-1.3,1.3-1.3c0.4,0,0.8,0.3,0.8,0.7c0.1,0.4,0.1,0.4-1.8,5.4c-0.4,1.1-0.5,1.2-0.8,1.3
			C3.6,37.6,3.6,37.6,3.2,37.5L3.2,37.5z M20.6,37.5c-0.3-0.1-0.5-0.4-0.7-0.7c0-0.3,0.3-1.1,2-5.4c0.4-1.2,0.7-1.3,1.3-1.3
			c0.3,0,0.8,0.4,0.8,0.8c0,0.3-2,5.7-2.4,6.3c0,0-0.3,0.1-0.4,0.3C20.9,37.6,20.9,37.6,20.6,37.5L20.6,37.5z M37.9,37.5
			c-0.3-0.1-0.5-0.4-0.7-0.7c0-0.1,0.3-0.9,0.8-2.5c0.5-1.3,1.1-2.8,1.2-3.2c0.4-0.9,0.7-1.1,1.2-1.1c0.4,0,0.9,0.4,0.9,0.8
			c0,0.3-2.1,5.7-2.4,6.3c0,0-0.3,0.1-0.4,0.3C38.2,37.6,38.2,37.6,37.9,37.5L37.9,37.5z M8.8,25.8c-1.7-0.3-3.4-1.2-4.7-2.4
			c-1.1-0.9-1.4-1.6-2.1-2.8S1.1,18.4,1,17c-0.1-2.9,0.9-5.3,2.9-7.2c1.4-1.3,3.2-2.1,5-2.5c1.2-0.1,3,0,4.1,0.3
			c0.8,0.3,0.8,0.3,0.9,0.1c1.8-2.8,3-4.1,5.3-5.3c2-0.9,3.5-1.3,5.8-1.3c2.4,0,3.9,0.4,5.8,1.3c2.2,1.2,3.5,2.5,5.4,5.3
			c0,0.1,0.1,0.1,0.9-0.1c1.1-0.3,2.9-0.4,4.1-0.3c1.8,0.4,3.5,1.2,4.9,2.5c2.1,2,3.2,4.3,3,7.2c-0.1,1.4-0.4,2.5-0.9,3.7
			c-0.7,1.2-1.2,1.8-2.1,2.8c-1.3,1.3-3.2,2.1-4.9,2.4C40.3,25.9,9.6,25.9,8.8,25.8L8.8,25.8z M41.5,23.8c2.1-0.7,3.8-2,4.7-3.9
			c0.7-1.2,0.8-2,0.8-3.3c0-1.3-0.1-2.1-0.8-3.4c-0.8-1.6-2.5-3.2-4.2-3.7c-1.8-0.7-3.8-0.5-5.7,0.3c-1.1,0.5-1.2,0.4-1.8-0.9
			c-1.4-2.9-4.2-5-7.5-5.7c-0.9-0.3-3.2-0.3-4.2,0C21,3.5,19.3,4.3,18,5.7c-0.9,0.7-2,2.1-2.5,3.2c-0.7,1.3-0.9,1.4-2,0.9
			c-2.2-1.1-4.7-0.9-6.8,0.4c-0.5,0.3-1.2,0.8-1.6,1.2c-0.7,0.8-0.9,1.1-1.3,1.8c-0.7,1.3-0.9,2.1-0.9,3.4c0,1.3,0.3,2.1,0.9,3.3
			c0.7,1.6,2.1,3,3.8,3.7c0.5,0.1,1.2,0.4,2,0.5c0.1,0,7.2,0,15.8,0C39.7,24.1,41,24.1,41.5,23.8L41.5,23.8z"/>
	</g>
</svg>
