<?xml version="1.0" encoding="utf-8"?>
<!-- Generator: Adobe Illustrator 23.0.1, SVG Export Plug-In . SVG Version: 6.00 Build 0)  -->
<svg version="1.1" id="Layer_1" xmlns="http://www.w3.org/2000/svg" xmlns:xlink="http://www.w3.org/1999/xlink" x="0px" y="0px"
	 viewBox="0 0 50 50" style="enable-background:new 0 0 50 50;" xml:space="preserve">
<style type="text/css">
	.st0{fill:#FDF5EC;}
</style>
<g>
	<path class="st0" d="M27.6,44.2c-1.9-1-7.2-4.2-14.7-9.1l-2.7-1.8H6.4H2.5l-0.5-0.4c-0.2-0.1-0.6-0.5-0.8-0.7L1,31.8V25v-6.8
		l0.3-0.5c0.2-0.2,0.6-0.6,0.8-0.7l0.5-0.4h3.9h3.9l2.8-1.8C19.4,10.7,25.2,7,27.2,6c1.4-0.7,1.7-0.8,2.2-0.2L29.8,6v19v19l-0.2,0.2
		c-0.3,0.3-0.7,0.4-1,0.4C28.5,44.6,28.1,44.4,27.6,44.2L27.6,44.2z M39.7,40.1l-1-1.4l0.7-0.6c5.8-5.1,7.6-12.9,4.7-19.9
		c-1.1-2.4-2.7-4.6-4.7-6.5l-0.8-0.7l1.1-1.4c0.6-0.7,1.1-1.4,1.1-1.4c0.2,0,1.4,1,2.3,2c7.1,7.2,7.9,18.8,1.8,26.9
		c-1,1.3-2.1,2.4-3.1,3.3c-0.5,0.5-1,0.8-1,0.8C40.8,41.5,40.3,40.9,39.7,40.1L39.7,40.1z M34.6,35.6l-1.1-1.4l0.5-0.3
		c1.2-1.1,2.2-2.3,2.9-3.7c0.9-1.8,1.2-3.2,1.2-5.2c0-2-0.3-3.4-1.2-5.1c-0.7-1.4-1.7-2.7-2.9-3.7l-0.5-0.4l1.1-1.4
		c0.6-0.8,1.1-1.4,1.1-1.4c0.1,0,0.5,0.3,1,0.7c1.9,1.7,3.5,4.1,4.2,6.6c0.6,1.6,0.8,2.9,0.8,4.7c0,3.8-1.2,6.9-3.6,9.8
		c-0.6,0.7-2.2,2.2-2.3,2.2S35.2,36.4,34.6,35.6L34.6,35.6z"/>
</g>
</svg>
