<?xml version="1.0" encoding="utf-8"?>
<!-- Generator: Adobe Illustrator 23.0.1, SVG Export Plug-In . SVG Version: 6.00 Build 0)  -->
<svg version="1.1" id="Layer_1" xmlns="http://www.w3.org/2000/svg" xmlns:xlink="http://www.w3.org/1999/xlink" x="0px" y="0px"
	 viewBox="0 0 50 50" xml:space="preserve">
	<g>
		<path class="st0" d="M40.5,48.8c-1.5-0.3-3-1.3-4-2.3c-0.8-1.2-1.5-3-1.5-4.3c0-0.5,0-0.7,0.2-0.8c0.7-0.7,1.7-0.2,1.7,0.7
			c0,0.2,0,0.7,0.2,1c0.5,2.7,3.2,4.5,5.6,4c2.8-0.3,4.8-3,4.3-5.6c-0.3-2.2-1.8-4-4-4.3c-0.5-0.2-2.8-0.2-13.8-0.2H16l-0.3-0.3
			c-0.3-0.3-0.2-1.2,0.3-1.5c0.2,0,4,0,13.4,0c14.9,0,14.1-0.2,15.8,0.7c3.3,1.7,4.8,6,3.2,9.3c-0.8,1.5-1.8,2.7-3.3,3.3
			C43.7,49,42,49.1,40.5,48.8L40.5,48.8z M1.5,31.2c-0.5-0.2-0.7-1-0.2-1.5l0.2-0.2h14.3h14.1l0.2,0.2c0.3,0.3,0.5,0.7,0.3,1
			c-0.3,0.7,0.7,0.7-14.6,0.7C8,31.4,1.7,31.4,1.5,31.2L1.5,31.2z M11.2,25.7C11,25.4,11,25.2,11,24.9c0-0.2,0-0.3,0.2-0.7l0.3-0.2
			h14.1h14.1l0.3,0.2c0.2,0.3,0.2,0.5,0.2,0.7c0,0.3,0,0.5-0.2,0.8l-0.3,0.2H25.6H11.5L11.2,25.7z M1.4,20.3c-0.5-0.3-0.5-1,0-1.3
			l0.2-0.3h14.1c10.6,0,14.1,0,14.3,0.2c0.3,0.2,0.7,0.7,0.5,1c0,0.2-0.2,0.3-0.3,0.5l-0.2,0.2H15.8H1.5L1.4,20.3L1.4,20.3z M16,15
			c-0.5-0.3-0.7-1.2-0.3-1.5l0.3-0.3h13.3c10.9,0,13.3,0,13.8-0.2c2.2-0.3,3.6-2.2,4-4.3C47.5,6,45.5,3.4,42.7,3
			c-2.5-0.5-5.1,1.3-5.6,4c-0.2,0.3-0.2,0.8-0.2,1c0,0.8-1,1.3-1.7,0.7C35,8.5,35,8.3,35,7.8c0-2,1-4.1,2.7-5.3c2.5-2,6-2,8.6,0
			C48,3.8,49,5.8,49,8c0,2.7-1.5,5.1-3.8,6.3c-1.7,0.8-0.8,0.7-15.8,0.7C20.5,15,16,15,16,15L16,15z"/>
	</g>
</svg>
